<svg width="2479" height="2500" viewBox="0 0 2479 2500" fill="none" xmlns="http://www.w3.org/2000/svg">
<g clip-path="url(#clip0_41_2)">
<path d="M2460.16 48.0556C2462.97 32.9809 2457.08 17.1024 2444.02 7.67701C2427.29 -4.40521 2404.14 -1.98555 2390.22 13.2559L2368.51 37.0927L2334.23 51.8036C2322.05 48.0375 2308.47 47.7139 2294.32 51.2108C2286.21 53.2205 2283.81 52.7482 2276.59 51.3253C2260.81 48.2304 2244.31 46.3554 2217.98 54.7699C2208.69 54.2273 2197.82 55.5557 2180.71 61.1607C2159.24 68.2428 2145.87 85.1242 2136.11 97.5058L2132.86 101.66C2071.46 117.478 2047.2 151.994 2037.78 178.86C2035.92 184.081 2034.69 189.282 2033.69 194.485C1968.98 145.431 1880.02 140.981 1804.52 185.118C1717.86 235.842 1679.11 331.873 1705.82 429.809C1748.91 588.011 1899.01 737.011 1988.65 826.092L2017.7 855.12C2064.41 902.766 2124.84 998.807 2112.78 1063C2109.84 1079.01 2101.36 1102.24 2062.23 1119.96C2042.29 1128.97 2023.22 1134.57 2004.76 1136.75C2037.87 1043.95 2021.86 944.157 1959.02 878.788C1869.32 785.66 1784.6 808.896 1752.23 834.177C1738.6 844.889 1733.22 863.077 1738.84 879.445C1744.51 895.822 1759.99 906.837 1777.39 906.821C1820.43 906.787 1868.86 938.842 1889.9 981.369C1907.64 1017.21 1904.21 1056.06 1880.18 1094.66C1861.95 1079.8 1846.25 1063.41 1832.8 1049.28C1827.26 1043.49 1822.05 1038.02 1817.45 1033.54L1814.1 1029.83C1749.73 957.281 1684.15 914.955 1618.46 903.385C1610.23 787.287 1528.21 669.842 1403.88 601.561C1393.81 595.994 1383.35 591.062 1372.51 586.592C1349.31 465.292 1275.11 383.95 1156.74 350.646C984.002 301.969 846.849 379.165 780.429 562.329C757.76 624.829 709.596 837.879 670.057 1016.5L662.615 1049.97C657.326 1073.59 629.801 1116.04 600.474 1126.15C592.379 1128.99 582.176 1130.31 568.062 1118.78C539.261 1095.35 556.269 1027.72 565.415 991.379C567.208 984.325 568.703 978.246 569.945 972.713C577.421 938.096 566.06 899.492 540.242 872.004C515.006 845.106 480.082 832.754 444.428 838.146C368.916 849.515 344.969 910.59 335.56 938.114C328.24 924.141 318.158 905.792 299.124 894.922C283.665 886.096 273.304 882.583 264.059 881.23C239.754 867.554 223.244 866.214 207.024 866.111C199.733 866.077 197.251 866.077 189.729 862.44C174.7 855.283 159.206 853.08 144.71 855.844L116.711 838.088L98.9897 811.088C87.5425 793.642 64.7668 787.73 46.2154 797.358C32.1436 804.675 24.0747 819.268 24.4163 834.408C10.4169 840.598 0.639772 854.411 0.239845 870.484C-0.286692 891.118 14.7558 908.865 35.2043 911.735L67.1261 916.249L94.7311 933.745C98.2019 947.596 106.438 960.621 119.036 971.35C125.401 976.78 126.418 979.017 129.458 985.716C136.157 1000.42 144.141 1014.96 166.525 1031.57C171.473 1039.35 178.854 1047.4 193.324 1057.97C211.588 1071.32 233.098 1072.29 248.814 1072.98C250.359 1073.09 252.276 1073.14 254.093 1073.27C302.661 1114.02 344.895 1113.64 372.26 1105.62C377.526 1104.1 382.504 1102.08 387.293 1099.89C385.124 1181.05 433.292 1256 513.115 1291.6C604.783 1332.59 705.43 1308.14 769.529 1229.42C873.001 1102.24 906.806 893.481 926.961 768.76L933.71 728.189C945.241 662.474 988.086 557.444 1047.29 529.825C1062 522.942 1085.88 516.33 1123.06 537.844C1142.04 548.742 1157.63 560.987 1170.15 574.697C1075.46 601.854 1003.66 673.011 987.135 762.178C963.564 889.223 1031.81 944.652 1071.23 956.199C1087.91 961.105 1105.74 954.871 1115.81 940.681C1125.87 926.597 1125.77 907.609 1115.69 893.541C1090.52 858.507 1088.41 800.491 1110.74 758.591C1129.54 723.339 1163.14 703.466 1208.46 700.545C1207.08 724.049 1202.85 746.368 1199.28 765.517C1197.78 773.368 1196.36 780.792 1195.38 787.167C1195.25 787.842 1194.69 790.169 1194.26 791.996C1174.71 878.025 1176.14 950.518 1198.34 1008.34C1102.98 1067.22 1035.37 1187.59 1025.57 1322.11C1024.69 1333.59 1024.56 1345.25 1025.02 1356.86C924.419 1428.5 881.414 1529.85 900.417 1651.36C928.143 1828.67 1055.4 1921.16 1249.66 1905.25C1315.91 1899.83 1529.67 1854.94 1708.56 1816.42L1742.02 1809.2C1765.75 1804.21 1815.78 1811.49 1837.18 1833.94C1843.12 1840.19 1848.59 1848.87 1844.01 1866.52C1834.72 1902.45 1766.11 1915.15 1729.25 1922.02C1722.14 1923.31 1715.96 1924.44 1710.45 1925.67C1675.84 1933.31 1645.46 1959.72 1631.24 1994.64C1617.3 2028.76 1620.56 2065.71 1640.32 2095.84C1682.14 2159.77 1747.62 2156.09 1776.57 2153.17C1766.94 2165.66 1754.46 2182.43 1752.49 2204.34C1750.93 2222.03 1752.05 2232.95 1754.65 2241.84C1752.29 2269.62 1758 2285.26 1764.64 2299.98C1767.66 2306.63 1768.62 2308.91 1768.54 2317.23C1768.25 2334.42 1773.1 2349.83 1782.18 2362.09L1776.16 2403.85L1758.84 2431.05C1747.54 2448.69 1751.47 2471.9 1767.88 2484.82C1773.83 2489.53 1781 2492.48 1788.55 2493.31C1796.1 2494.15 1803.73 2492.85 1810.58 2489.56C1822.01 2499.79 1838.61 2503.07 1853.44 2496.84C1872.48 2488.87 1882.51 2467.9 1876.75 2448.06L1867.8 2417.06L1874.16 2372.67C1884.73 2363.75 1892.68 2351.24 1897.07 2336.01C1899.28 2328.03 1900.89 2326.16 1905.74 2320.58C1916.29 2308.39 1926.2 2295.04 1931.95 2267.83C1937.02 2260.1 1941.23 2249.98 1944.83 2232.45C1949.39 2210.3 1941.26 2190.33 1935.4 2175.76L1933.43 2170.83C1950.26 2109.72 1932.32 2071.48 1913.69 2049.93C1910.02 2045.81 1906.13 2042.13 1902.19 2038.66C1976.84 2006.87 2024.91 1931.82 2024.09 1844.4C2023.07 1743.97 1958.94 1662.72 1860.73 1637.2C1701.95 1596.15 1498.11 1652.36 1376.36 1685.98L1336.7 1696.78C1272.1 1713.68 1158.77 1718.45 1109.02 1676.14C1096.64 1665.61 1080.67 1646.75 1084.73 1603.89C1086.78 1582.12 1091.4 1562.84 1098.63 1545.77C1162.78 1620.56 1257.38 1656.17 1345.31 1634.04C1470.63 1602.51 1492.58 1517.39 1486.63 1476.76C1484.16 1459.6 1471.04 1445.88 1454.03 1442.67C1436.98 1439.47 1419.76 1447.41 1411.2 1462.45C1389.8 1499.87 1337.95 1525.99 1290.56 1523.17C1250.64 1520.78 1218.6 1498.51 1197.04 1458.46C1219.02 1450 1240.99 1444.49 1259.94 1439.8C1267.74 1437.88 1275.06 1436.1 1281.25 1434.34C1282.88 1434.01 1284.5 1433.67 1286.13 1433.3C1384.28 1412.74 1454.97 1375.07 1497.08 1321.28C1595.26 1371.12 1727.72 1368.26 1847.05 1311.11C1857.39 1306.15 1867.53 1300.46 1877.43 1294.27C1989.63 1345.99 2098.96 1333.04 2194.97 1256.19C2335.05 1144.1 2352.21 987.655 2241.93 827.015C2204.3 772.175 2059.17 608.93 1936.9 472.82L1914.04 447.315C1897.97 429.196 1879.43 382.165 1888.28 352.42C1890.71 344.178 1895.59 335.095 1913.18 330.33C1948.95 320.591 1994.07 373.789 2018.29 402.373C2022.99 407.932 2027 412.697 2030.84 416.913C2054.65 443.187 2092.66 456.379 2129.99 451.431C2166.58 446.578 2196.97 425.35 2213.36 393.227C2248.08 325.207 2212.32 270.2 2195.43 246.506C2211.05 248.69 2231.82 251.2 2251.81 241.992C2267.97 234.58 2276.84 228.179 2283.31 221.489C2308.58 209.763 2319.31 197.043 2328.78 183.962C2333.17 178.05 2334.58 176.038 2341.86 172.017C2361.84 160.968 2371.02 146.337 2375.29 134.874L2405.14 122.022L2437.36 122.623C2458.27 123.041 2476.08 107.564 2478.51 86.8203C2480.32 71.1348 2472.83 56.2732 2460.16 48.0556ZM1354.13 1182.63C1341.27 1217.98 1262 1252.57 1205.8 1273.63C1220.74 1245.34 1240.58 1218.73 1263.53 1197.34C1306.97 1156.83 1343.38 1157.92 1351.02 1162C1356.64 1171.92 1355.88 1177.82 1354.13 1182.63ZM1413.89 964.182C1402.54 965.1 1397.53 962.013 1393.87 958.426C1367.05 931.987 1368.67 845.556 1372.93 785.67C1392.43 811.008 1408.37 840.16 1418.28 869.968C1436.96 926.253 1420.82 958.945 1413.89 964.182ZM1620.39 1166.55C1563.66 1149 1546.5 1116.84 1546.33 1108.21C1552.14 1098.36 1557.62 1096.08 1562.63 1095.19C1599.73 1088.82 1669.09 1140.42 1715.25 1178.79C1683.36 1179.88 1650.36 1175.84 1620.39 1166.55Z" fill="#00FF00"/>
<path d="M2438.08 82.1298L2401.61 74.0227L2420.28 40.6499L2392.63 70.9841L2332.41 96.8648C2327.07 91.1271 2318.04 87.2022 2304.12 90.6488C2267.32 99.827 2266.24 80.2065 2225.37 95.0962C2216.99 98.1831 2219.81 91.0668 2193.38 99.7848C2175.01 105.81 2162.61 136.588 2150.32 139.225C2031.74 164.609 2078.71 265.773 2095.1 285.797C2115.43 310.717 2098.53 319.252 2089.52 310.295C2075.45 296.219 2058.04 273.152 2024.62 240.236C1910.11 127.267 1696.79 242.123 1745.03 419.057C1790.48 585.694 1971.2 749.648 2046.76 826.637C2115.13 896.297 2233.93 1086.71 2079.02 1156.9C2026.37 1180.8 1981.19 1182.62 1942.71 1172.9C1996.75 1084.77 1993.63 973.328 1929.78 906.948C1841.89 815.634 1777.32 866.168 1777.32 866.168C1879.6 866.089 2008.07 995.563 1902.21 1134.28C1897.97 1139.82 1893.43 1145.14 1888.61 1150.19C1843.28 1123.34 1810.69 1083.86 1788.58 1062.05C1778.77 1052.33 1689.2 938.168 1577.87 940.61C1587.62 822.131 1501.93 701.687 1384.42 637.096C1369.04 628.686 1352.9 621.757 1336.2 616.402C1324.69 527.829 1281.15 427.819 1145.71 389.67C939.387 331.558 851.52 485.381 818.637 576.138C790.463 653.832 714.972 1002.41 702.266 1058.87C690.202 1112.7 614.723 1209.21 542.404 1150.25C486.621 1104.83 521.745 1003.21 530.199 964.097C539.285 922.023 501.947 870.512 450.443 878.274C388.722 887.559 377.16 944.266 370.084 962.53C355.15 1001.02 320.308 981.994 313.298 977.404C302.727 970.573 295.738 939.734 278.908 930.134C254.748 916.345 256.139 923.868 248.524 919.229C211.462 896.417 206.431 915.401 172.226 899.13C161.561 894.042 153.12 894.54 146.904 897.406C144.824 898.747 143.426 900.141 141.464 901.936L87.5344 867.721L65.0641 833.43L78.9309 868.109L40.8856 871.525L81.5094 877.247L134.762 911.014C132.043 919.006 133.08 929.945 145.427 940.474C174.254 965.086 158.971 977.369 194.902 1001.95C202.279 1006.96 194.837 1008.8 217.312 1025.19C232.899 1036.61 265.146 1028.78 274.479 1037.27C364.137 1118.88 419.062 1021.81 425.794 996.799C434.189 965.777 451.014 974.538 448.974 987.06C445.668 1006.7 437.083 1034.27 429.773 1080.61C404.568 1239.54 622.195 1346.11 737.97 1203.85C846.941 1069.89 875.065 827.467 893.653 721.233C910.56 625.096 996.168 417.608 1143.38 502.682C1193.47 531.591 1221.22 567.265 1235.76 604.173C1132.6 611.543 1043.82 679.016 1027.06 769.62C1004.01 894.166 1082.68 917.248 1082.68 917.248C1023.01 834.139 1053.56 654.343 1227.95 659.608C1234.93 659.835 1241.89 660.433 1248.8 661.401C1253.35 713.872 1240.25 763.37 1235.41 793.998C1233.27 807.173 1195.49 936.993 1252.47 1026.08C1145.66 1069.99 1075.54 1194.88 1066.06 1325.05C1064.74 1343.08 1065.26 1360.55 1067.27 1377.46C991.536 1424.89 918.816 1506.14 940.571 1645.13C973.684 1856.9 1150.1 1872.7 1246.34 1864.79C1328.64 1858.04 1677.03 1781.44 1733.6 1769.5C1787.6 1758.07 1906.76 1786.49 1883.34 1876.76C1865.23 1946.39 1758.23 1956.8 1719.2 1965.38C1677.08 1974.64 1645.87 2030.08 1674.39 2073.65C1708.58 2125.88 1764.92 2112.77 1784.42 2111.63C1825.71 2109.2 1822.87 2148.79 1821.62 2157.08C1819.8 2169.56 1794.7 2188.75 1792.98 2207.97C1790.5 2235.67 1796.77 2231.29 1795.71 2240.14C1790.38 2283.36 1809.74 2279.95 1809.18 2317.88C1809.02 2329.36 1812.8 2336.7 1817.77 2341.16L1817.95 2340.96L1819.41 2342.53L1820.87 2343.64V2343.7C1822.33 2344.67 1823.93 2345.42 1825.6 2345.94L1815.14 2418.38L1793.07 2453L1819.07 2426.08L1837.81 2459.42L1826.37 2420L1836.95 2346.84C1844.95 2345.56 1853.72 2339.84 1857.93 2325.03C1868.31 2288.56 1885.84 2297.35 1893.18 2254.46C1894.71 2245.67 1899.41 2251.67 1905.01 2224.42C1908.94 2205.49 1888.38 2179.42 1892.17 2167.43C1928.99 2051.87 1817.86 2042.42 1792.37 2046.67C1760.66 2051.97 1761.58 2033.04 1773.87 2029.72C1793.1 2024.47 1821.71 2020.8 1866.87 2008.18C2021.84 1964.8 2028.07 1722.64 1850.55 1676.66C1683.3 1633.39 1451.23 1708.85 1346.95 1736.19C1252.52 1760.91 1028.25 1769.52 1044.25 1600.22C1049.66 1542.64 1070.49 1502.53 1098.01 1473.98C1147.7 1564.62 1246.02 1617.22 1335.34 1594.71C1458.27 1563.83 1446.43 1482.69 1446.43 1482.69C1395.71 1571.49 1219.61 1618.71 1151.69 1457.97C1149.01 1451.53 1146.66 1444.96 1144.64 1438.28C1190.48 1412.25 1240.89 1403.57 1270.81 1395.21C1284.4 1391.44 1433.87 1369.52 1484.03 1266.15C1575.43 1332 1714.53 1329.67 1829.4 1274.57C1845.7 1266.79 1860.62 1257.61 1874.31 1247.5C1953.05 1289.68 2059.73 1312.46 2169.57 1224.6C2336.95 1090.66 2263.04 929.706 2208.41 850.094C2161.63 781.99 1922.21 517.642 1883.66 474.466C1847.04 433.246 1812.45 315.766 1902.47 291.267C1971.86 272.38 2034.08 360.107 2060.93 389.774C2089.87 421.672 2153.43 421.288 2177.15 374.882C2205.54 319.274 2166.13 276.858 2155.45 260.497C2132.85 225.899 2168.6 208.728 2176.41 205.631C2188.12 201.041 2217.26 213.316 2234.82 205.209C2260.12 193.609 2253.22 190.339 2261.4 186.868C2301.56 170.007 2289.01 154.898 2322.15 136.558C2331.3 131.502 2335.89 125.388 2337.73 119.417L2337.4 118.256C2338.87 113.107 2338.7 109.572 2337.96 106.777L2397.1 81.3781L2438.08 82.1298ZM1336.54 735.727C1337.68 724.674 1338.69 711.75 1339.32 697.473C1396.26 736.336 1437.53 799.143 1456.85 857.088C1484.77 941.298 1453.81 1000.56 1420.21 1004.39C1308.49 1017.18 1327.96 821.878 1336.54 735.727ZM1175.58 1327.49C1165.07 1331.11 1152.88 1335.51 1139.59 1340.92C1151.25 1272.98 1191.17 1209.28 1235.83 1167.6C1300.7 1107.1 1367.47 1110.58 1384.97 1139.54C1443.1 1235.74 1257.43 1299.38 1175.58 1327.49ZM1608.35 1205.36C1523.59 1179.13 1493.49 1119.38 1509.9 1089.85C1564.54 991.556 1712.02 1121.08 1777.08 1178.23C1785.41 1185.58 1795.28 1193.98 1806.59 1202.78C1741.82 1226.43 1666.67 1223.47 1608.35 1205.36Z" fill="black"/>
<path d="M1917.13 2461.16H1924.82V2438.75H1933.58V2433.34H1908.64V2438.75H1917.13V2461.16ZM1935.84 2460.24V2433.86H1947.47L1951.72 2451.73H1951.8L1956 2433.86H1967.34V2460.24H1960.96V2438.16L1960.84 2438.08L1954.73 2460.24H1948.12L1942.32 2437.88L1942.23 2438V2460.24H1935.84Z" fill="#66B933"/>
</g>
<defs>
<clipPath id="clip0_41_2">
<rect width="2479" height="2500" fill="white"/>
</clipPath>
</defs>
</svg>
