<svg width="924" height="141" viewBox="0 0 924 141" fill="none" xmlns="http://www.w3.org/2000/svg">
<g clip-path="url(#clip0_41_6)">
<path d="M678.311 15.4333L687.206 0H589.047V15.4333H678.311Z" fill="#00FF00"/>
<path d="M678.311 77.834L687.206 62.4006H589.047V77.834H678.311Z" fill="#00FF00"/>
<path d="M678.311 140.234L687.206 124.801H589.047V140.234H678.311Z" fill="#00FF00"/>
<path d="M883.581 43.4543V34.559C883.581 30.0207 882.687 25.5268 880.951 21.3339C879.214 17.141 876.668 13.3312 873.459 10.1221C870.25 6.91306 866.441 4.36744 862.248 2.6307C858.055 0.893967 853.561 -2.20753e-05 849.022 4.08498e-10H785.376V140.281H800.809V78.013H829.72L865.746 140.281H883.537L847.51 78.013H848.978C853.52 78.0189 858.019 77.1293 862.217 75.3952C866.415 73.661 870.23 71.1165 873.444 67.9068C876.657 64.6971 879.207 60.8854 880.946 56.6896C882.686 52.4939 883.581 47.9964 883.581 43.4543ZM800.809 15.4338H849.022C854.091 15.4455 858.949 17.4643 862.533 21.0484C866.117 24.6326 868.136 29.4903 868.148 34.559V43.4543C868.136 48.523 866.117 53.3807 862.533 56.9649C858.949 60.549 854.091 62.5677 849.023 62.5795H800.809V15.4338Z" fill="#00FF00"/>
<path d="M98.2053 43.4543V34.559C98.2054 30.0207 97.3115 25.5268 95.5748 21.3339C93.838 17.1411 91.2925 13.3312 88.0834 10.1221C84.8744 6.91307 81.0646 4.36745 76.8718 2.6307C72.6789 0.893958 68.185 0 63.6467 0H0V140.281H15.4335V78.013H44.4772L80.5035 140.281H98.2943L62.2679 78.013H63.7355C72.8856 77.9895 81.653 74.3381 88.1148 67.8596C94.5766 61.3811 98.2054 52.6045 98.2053 43.4543ZM15.4335 15.4338H63.6467C68.7154 15.4456 73.5731 17.4643 77.1572 21.0484C80.7413 24.6326 82.76 29.4903 82.7717 34.559V43.4543C82.76 48.523 80.7413 53.3807 77.1572 56.9649C73.5731 60.549 68.7154 62.5677 63.6467 62.5795H15.4336L15.4335 15.4338Z" fill="#00FF00"/>
<path d="M301.862 140.234L253.516 20.5926L245.199 0L236.882 20.5926L188.536 140.234H205.17L245.199 41.1852L285.228 140.234H301.862Z" fill="#00FF00"/>
<path d="M895.901 0H905.731V1.95712H901.95V13.6101H899.726V1.95712H895.901V0Z" fill="#00FF00"/>
<path d="M909.511 0.0446777H913.292L916.227 10.6747L919.252 0.0446777H923.077V13.6101H920.898V2.44632H920.675L917.473 13.0766H915.204L911.78 2.44632V13.6101H909.6L909.511 0.0446777Z" fill="#00FF00"/>
<path d="M464.78 15.4333L401.623 124.801L392.683 140.234H482.526L491.421 124.801H419.413L482.57 15.4333L491.465 0H392.683V15.4333H464.78Z" fill="#00FF00"/>
<path d="M678.311 15.4333L687.206 0H589.047V15.4333H678.311Z" fill="#00FF00"/>
<path d="M678.311 77.834L687.206 62.4006H589.047V77.834H678.311Z" fill="#00FF00"/>
<path d="M678.311 140.234L687.206 124.801H589.047V140.234H678.311Z" fill="#00FF00"/>
<path d="M301.862 140.234L253.516 20.5926L245.199 0L236.882 20.5926L188.536 140.234H205.17L245.199 41.1852L285.228 140.234H301.862Z" fill="#00FF00"/>
</g>
<defs>
<clipPath id="clip0_41_6">
<rect width="924" height="141" fill="white"/>
</clipPath>
</defs>
</svg>
